<svg width="105" height="105" viewBox="0 0 105 105" fill="none" xmlns="http://www.w3.org/2000/svg">
<path d="M43.0352 2.79999H45.7895V5.55436H43.0352V2.79999Z" fill="#1B1B1D"/>
<path d="M45.7893 2.79999H48.5437V5.55436H45.7893V2.79999Z" fill="#1B1B1D"/>
<path d="M48.5437 2.79999H51.2981V5.55436H48.5437V2.79999Z" fill="#1B1B1D"/>
<path d="M51.298 2.79999H54.0523V5.55436H51.298V2.79999Z" fill="#1B1B1D"/>
<path d="M54.0525 2.79999H56.8069V5.55436H54.0525V2.79999Z" fill="#1B1B1D"/>
<path d="M56.8068 2.79999H59.5611V5.55436H56.8068V2.79999Z" fill="#1B1B1D"/>
<path d="M59.5612 2.79999H62.3155V5.55436H59.5612V2.79999Z" fill="#1B1B1D"/>
<path d="M40.2802 5.55483H43.0345V8.30958H40.2802V5.55483Z" fill="#1B1B1D"/>
<path d="M43.0347 5.55483H45.7891V8.30958H43.0347V5.55483Z" fill="#F6C381"/>
<path d="M45.7891 5.55483H48.5432V8.30958H45.7891V5.55483Z" fill="#F6C381"/>
<path d="M48.5432 5.55483H51.298V8.30958H48.5432V5.55483Z" fill="#F6C381"/>
<path d="M51.298 5.55483H54.0519V8.30958H51.298V5.55483Z" fill="#EC8A4D"/>
<path d="M54.0519 5.55483H56.8066V8.30958H54.0519V5.55483Z" fill="#EC8A4D"/>
<path d="M56.8066 5.55483H59.5606V8.30958H56.8066V5.55483Z" fill="#EC8A4D"/>
<path d="M59.5605 5.55483H62.3153V8.30958H59.5605V5.55483Z" fill="#BC4F4A"/>
<path d="M62.3153 5.55483H65.0692V8.30958H62.3153V5.55483Z" fill="#1B1B1D"/>
<path d="M40.2804 8.3089H43.0347V11.0634H40.2804V8.3089Z" fill="#1B1B1D"/>
<path d="M43.0348 8.3089H45.7891V11.0634H43.0348V8.3089Z" fill="#EC8A4D"/>
<path d="M45.7891 8.3089H48.5436V11.0634H45.7891V8.3089Z" fill="#EC8A4D"/>
<path d="M48.5437 8.3089H51.2982V11.0634H48.5437V8.3089Z" fill="#EC8A4D"/>
<path d="M51.2981 8.3089H54.0526V11.0634H51.2981V8.3089Z" fill="#1B1B1D"/>
<path d="M54.0525 8.3089H56.8062V11.0634H54.0525V8.3089Z" fill="#EC8A4D"/>
<path d="M56.8063 8.3089H59.5608V11.0634H56.8063V8.3089Z" fill="#BC4F4A"/>
<path d="M59.5608 8.3089H62.3153V11.0634H59.5608V8.3089Z" fill="#BC4F4A"/>
<path d="M62.3153 8.3089H65.0698V11.0634H62.3153V8.3089Z" fill="#1B1B1D"/>
<path d="M40.2806 11.063H43.035V13.8173H40.2806V11.063Z" fill="#1B1B1D"/>
<path d="M43.0352 11.063H45.7899V13.8173H43.0352V11.063Z" fill="#BC4F4A"/>
<path d="M45.7898 11.063H48.5441V13.8173H45.7898V11.063Z" fill="#1B1B1D"/>
<path d="M48.5439 11.063H51.2982V13.8173H48.5439V11.063Z" fill="#BC4F4A"/>
<path d="M51.2982 11.063H54.0525V13.8173H51.2982V11.063Z" fill="#BC4F4A"/>
<path d="M54.0525 11.063H56.8068V13.8173H54.0525V11.063Z" fill="#BC4F4A"/>
<path d="M56.8069 11.063H59.5612V13.8173H56.8069V11.063Z" fill="#1B1B1D"/>
<path d="M59.5612 11.063H62.3155V13.8173H59.5612V11.063Z" fill="#BC4F4A"/>
<path d="M62.3156 11.063H65.0699V13.8173H62.3156V11.063Z" fill="#1B1B1D"/>
<path d="M37.526 13.8179H40.2803V16.5719H37.526V13.8179Z" fill="#1B1B1D"/>
<path d="M40.2802 13.8179H43.0345V16.5719H40.2802V13.8179Z" fill="#1B1B1D"/>
<path d="M43.0347 13.8179H45.7894V16.5719H43.0347V13.8179Z" fill="#1B1B1D"/>
<path d="M45.7893 13.8179H48.5433V16.5719H45.7893V13.8179Z" fill="#1B1B1D"/>
<path d="M48.5432 13.8179H51.298V16.5719H48.5432V13.8179Z" fill="#1B1B1D"/>
<path d="M51.2981 13.8179H54.0521V16.5719H51.2981V13.8179Z" fill="#1B1B1D"/>
<path d="M54.0521 13.8179H56.8069V16.5719H54.0521V13.8179Z" fill="#1B1B1D"/>
<path d="M56.8069 13.8179H59.5609V16.5719H56.8069V13.8179Z" fill="#1B1B1D"/>
<path d="M59.5608 13.8179H62.3148V16.5719H59.5608V13.8179Z" fill="#1B1B1D"/>
<path d="M62.3148 13.8179H65.0696V16.5719H62.3148V13.8179Z" fill="#1B1B1D"/>
<path d="M65.0696 13.8179H67.8236V16.5719H65.0696V13.8179Z" fill="#1B1B1D"/>
<path d="M34.7717 16.572H37.5261V19.3262H34.7717V16.572Z" fill="#1B1B1D"/>
<path d="M37.5261 16.572H40.2805V19.3262H37.5261V16.572Z" fill="#5EEE99"/>
<path d="M40.2804 16.572H43.0345V19.3262H40.2804V16.572Z" fill="#5EEE99"/>
<path d="M43.0347 16.572H45.7896V19.3262H43.0347V16.572Z" fill="#5EEE99"/>
<path d="M45.7896 16.572H48.5437V19.3262H45.7896V16.572Z" fill="#5EEE99"/>
<path d="M48.5438 16.572H51.298V19.3262H48.5438V16.572Z" fill="#08AB4B"/>
<path d="M51.298 16.572H54.0522V19.3262H51.298V16.572Z" fill="#08AB4B"/>
<path d="M54.0522 16.572H56.8064V19.3262H54.0522V16.572Z" fill="#08AB4B"/>
<path d="M56.8064 16.572H59.5614V19.3262H56.8064V16.572Z" fill="#08AB4B"/>
<path d="M59.5612 16.572H62.3154V19.3262H59.5612V16.572Z" fill="#0B8250"/>
<path d="M62.3156 16.572H65.0697V19.3262H62.3156V16.572Z" fill="#0B8250"/>
<path d="M65.0697 16.572H67.8239V19.3262H65.0697V16.572Z" fill="#0B8250"/>
<path d="M67.824 16.572H70.5789V19.3262H67.824V16.572Z" fill="#1B1B1D"/>
<path d="M34.772 19.3261H37.5264V22.0808H34.772V19.3261Z" fill="#1B1B1D"/>
<path d="M37.5262 19.3261H40.2806V22.0808H37.5262V19.3261Z" fill="#08AB4B"/>
<path d="M40.2808 19.3261H43.0355V22.0808H40.2808V19.3261Z" fill="#08AB4B"/>
<path d="M43.0354 19.3261H45.7894V22.0808H43.0354V19.3261Z" fill="#08AB4B"/>
<path d="M45.7893 19.3261H48.544V22.0808H45.7893V19.3261Z" fill="#08AB4B"/>
<path d="M48.5439 19.3261H51.2979V22.0808H48.5439V19.3261Z" fill="#08AB4B"/>
<path d="M51.298 19.3261H54.0527V22.0808H51.298V19.3261Z" fill="#08AB4B"/>
<path d="M54.0526 19.3261H56.8066V22.0808H54.0526V19.3261Z" fill="#08AB4B"/>
<path d="M56.8066 19.3261H59.5613V22.0808H56.8066V19.3261Z" fill="#08AB4B"/>
<path d="M59.5614 19.3261H62.3154V22.0808H59.5614V19.3261Z" fill="#0B8250"/>
<path d="M62.3153 19.3261H65.07V22.0808H62.3153V19.3261Z" fill="#0B8250"/>
<path d="M65.0701 19.3261H67.824V22.0808H65.0701V19.3261Z" fill="#0B8250"/>
<path d="M67.824 19.3261H70.5787V22.0808H67.824V19.3261Z" fill="#1B1B1D"/>
<path d="M34.7715 22.0809H37.5255V24.8355H34.7715V22.0809Z" fill="#1B1B1D"/>
<path d="M37.5256 22.0809H40.2802V24.8355H37.5256V22.0809Z" fill="#0B8250"/>
<path d="M40.2802 22.0809H43.0347V24.8355H40.2802V22.0809Z" fill="#0B8250"/>
<path d="M43.0348 22.0809H45.7894V24.8355H43.0348V22.0809Z" fill="#0B8250"/>
<path d="M45.7893 22.0809H48.5432V24.8355H45.7893V22.0809Z" fill="#0B8250"/>
<path d="M48.5432 22.0809H51.2978V24.8355H48.5432V22.0809Z" fill="#0B8250"/>
<path d="M51.2977 22.0809H54.0523V24.8355H51.2977V22.0809Z" fill="#0B8250"/>
<path d="M54.0525 22.0809H56.8063V24.8355H54.0525V22.0809Z" fill="#0B8250"/>
<path d="M56.8063 22.0809H59.5609V24.8355H56.8063V22.0809Z" fill="#0B8250"/>
<path d="M59.5608 22.0809H62.3154V24.8355H59.5608V22.0809Z" fill="#0B8250"/>
<path d="M62.3153 22.0809H65.0692V24.8355H62.3153V22.0809Z" fill="#0B8250"/>
<path d="M65.0692 22.0809H67.8238V24.8355H65.0692V22.0809Z" fill="#0B8250"/>
<path d="M67.8239 22.0809H70.5784V24.8355H67.8239V22.0809Z" fill="#1B1B1D"/>
<path d="M37.526 24.835H40.2804V27.5894H37.526V24.835Z" fill="#1B1B1D"/>
<path d="M40.2804 24.835H43.0348V27.5894H40.2804V24.835Z" fill="#1B1B1D"/>
<path d="M43.0348 24.835H45.7892V27.5894H43.0348V24.835Z" fill="#1B1B1D"/>
<path d="M45.7893 24.835H48.5437V27.5894H45.7893V24.835Z" fill="#1B1B1D"/>
<path d="M48.5435 24.835H51.2979V27.5894H48.5435V24.835Z" fill="#1B1B1D"/>
<path d="M51.298 24.835H54.0524V27.5894H51.298V24.835Z" fill="#1B1B1D"/>
<path d="M54.0525 24.835H56.8069V27.5894H54.0525V24.835Z" fill="#1B1B1D"/>
<path d="M56.8068 24.835H59.5612V27.5894H56.8068V24.835Z" fill="#1B1B1D"/>
<path d="M59.5612 24.835H62.3156V27.5894H59.5612V24.835Z" fill="#1B1B1D"/>
<path d="M62.3156 24.835H65.0699V27.5894H62.3156V24.835Z" fill="#1B1B1D"/>
<path d="M65.0701 24.835H67.8245V27.5894H65.0701V24.835Z" fill="#1B1B1D"/>
<path d="M40.2804 27.5891H43.035V30.3438H40.2804V27.5891Z" fill="#1B1B1D"/>
<path d="M43.0352 27.5891H45.7891V30.3438H43.0352V27.5891Z" fill="#0B8250"/>
<path d="M45.7891 27.5891H48.5437V30.3438H45.7891V27.5891Z" fill="#0B8250"/>
<path d="M48.5437 27.5891H51.2983V30.3438H48.5437V27.5891Z" fill="#0B8250"/>
<path d="M51.2985 27.5891H54.0524V30.3438H51.2985V27.5891Z" fill="#0B8250"/>
<path d="M54.0524 27.5891H56.807V30.3438H54.0524V27.5891Z" fill="#0B8250"/>
<path d="M56.8069 27.5891H59.5615V30.3438H56.8069V27.5891Z" fill="#0B8250"/>
<path d="M59.5615 27.5891H62.3155V30.3438H59.5615V27.5891Z" fill="#0B8250"/>
<path d="M62.3156 27.5891H65.0702V30.3438H62.3156V27.5891Z" fill="#1B1B1D"/>
<path d="M40.2808 30.344H43.0351V33.0983H40.2808V30.344Z" fill="#1B1B1D"/>
<path d="M43.0352 30.344H45.7895V33.0983H43.0352V30.344Z" fill="#08AB4B"/>
<path d="M45.7893 30.344H48.5437V33.0983H45.7893V30.344Z" fill="#08AB4B"/>
<path d="M48.5438 30.344H51.2982V33.0983H48.5438V30.344Z" fill="#08AB4B"/>
<path d="M51.2981 30.344H54.0525V33.0983H51.2981V30.344Z" fill="#08AB4B"/>
<path d="M54.0525 30.344H56.8069V33.0983H54.0525V30.344Z" fill="#0B8250"/>
<path d="M56.8069 30.344H59.5612V33.0983H56.8069V30.344Z" fill="#0B8250"/>
<path d="M59.5612 30.344H62.3155V33.0983H59.5612V30.344Z" fill="#0B8250"/>
<path d="M62.3156 30.344H65.0699V33.0983H62.3156V30.344Z" fill="#1B1B1D"/>
<path d="M40.2806 33.0981H43.0347V35.8521H40.2806V33.0981Z" fill="#1B1B1D"/>
<path d="M43.0347 33.0981H45.7894V35.8521H43.0347V33.0981Z" fill="#5EEE99"/>
<path d="M45.7893 33.0981H48.5434V35.8521H45.7893V33.0981Z" fill="#08AB4B"/>
<path d="M48.5433 33.0981H51.298V35.8521H48.5433V33.0981Z" fill="#08AB4B"/>
<path d="M51.2981 33.0981H54.0521V35.8521H51.2981V33.0981Z" fill="#08AB4B"/>
<path d="M54.0522 33.0981H56.807V35.8521H54.0522V33.0981Z" fill="#0B8250"/>
<path d="M56.8069 33.0981H59.5609V35.8521H56.8069V33.0981Z" fill="#0B8250"/>
<path d="M59.5608 33.0981H62.3155V35.8521H59.5608V33.0981Z" fill="#0B8250"/>
<path d="M62.3156 33.0981H65.0696V35.8521H62.3156V33.0981Z" fill="#1B1B1D"/>
<path d="M40.2811 35.8522H43.0352V38.6063H40.2811V35.8522Z" fill="#1B1B1D"/>
<path d="M43.0352 35.8522H45.7892V38.6063H43.0352V35.8522Z" fill="#5EEE99"/>
<path d="M45.7893 35.8522H48.544V38.6063H45.7893V35.8522Z" fill="#08AB4B"/>
<path d="M48.5438 35.8522H51.2979V38.6063H48.5438V35.8522Z" fill="#08AB4B"/>
<path d="M51.298 35.8522H54.0527V38.6063H51.298V35.8522Z" fill="#08AB4B"/>
<path d="M54.0526 35.8522H56.8067V38.6063H54.0526V35.8522Z" fill="#0B8250"/>
<path d="M56.8068 35.8522H59.5615V38.6063H56.8068V35.8522Z" fill="#0B8250"/>
<path d="M59.5615 35.8522H62.3156V38.6063H59.5615V35.8522Z" fill="#0B8250"/>
<path d="M62.3156 35.8522H65.0703V38.6063H62.3156V35.8522Z" fill="#1B1B1D"/>
<path d="M37.5259 38.607H40.2806V41.3611H37.5259V38.607Z" fill="#1B1B1D"/>
<path d="M40.2806 38.607H43.0347V41.3611H40.2806V38.607Z" fill="#5EEE99"/>
<path d="M43.0347 38.607H45.7888V41.3611H43.0347V38.607Z" fill="#08AB4B"/>
<path d="M45.7888 38.607H48.5435V41.3611H45.7888V38.607Z" fill="#08AB4B"/>
<path d="M48.5435 38.607H51.2976V41.3611H48.5435V38.607Z" fill="#08AB4B"/>
<path d="M51.2977 38.607H54.0525V41.3611H51.2977V38.607Z" fill="#08AB4B"/>
<path d="M54.0525 38.607H56.8066V41.3611H54.0525V38.607Z" fill="#08AB4B"/>
<path d="M56.8064 38.607H59.5605V41.3611H56.8064V38.607Z" fill="#0B8250"/>
<path d="M59.5605 38.607H62.3153V41.3611H59.5605V38.607Z" fill="#0B8250"/>
<path d="M62.3153 38.607H65.0694V41.3611H62.3153V38.607Z" fill="#0B8250"/>
<path d="M65.0695 38.6069H67.824V41.3615H65.0695V38.6069Z" fill="#1B1B1D"/>
<path d="M34.7715 41.3611H37.526V44.1156H34.7715V41.3611Z" fill="#1B1B1D"/>
<path d="M37.5261 41.3611H40.2806V44.1156H37.5261V41.3611Z" fill="#5EEE99"/>
<path d="M40.2808 41.3611H43.0353V44.1156H40.2808V41.3611Z" fill="#08AB4B"/>
<path d="M43.0352 41.3611H45.7891V44.1156H43.0352V41.3611Z" fill="#08AB4B"/>
<path d="M45.7891 41.3611H48.5436V44.1156H45.7891V41.3611Z" fill="#08AB4B"/>
<path d="M48.5435 41.3611H51.298V44.1156H48.5435V41.3611Z" fill="#08AB4B"/>
<path d="M51.2981 41.3611H54.0526V44.1156H51.2981V41.3611Z" fill="#08AB4B"/>
<path d="M54.0525 41.3611H56.807V44.1156H54.0525V41.3611Z" fill="#08AB4B"/>
<path d="M56.8071 41.3611H59.561V44.1156H56.8071V41.3611Z" fill="#08AB4B"/>
<path d="M59.561 41.3611H62.3155V44.1156H59.561V41.3611Z" fill="#0B8250"/>
<path d="M62.3153 41.3613H65.0698V44.1158H62.3153V41.3613Z" fill="#0B8250"/>
<path d="M65.0695 41.3615H67.824V44.1161H65.0695V41.3615Z" fill="#0B8250"/>
<path d="M67.8243 41.3608H70.5789V44.1153H67.8243V41.3608Z" fill="#1B1B1D"/>
<path d="M32.0171 44.1159H34.7714V46.8702H32.0171V44.1159Z" fill="#1B1B1D"/>
<path d="M34.7715 44.1159H37.5258V46.8702H34.7715V44.1159Z" fill="#5EEE99"/>
<path d="M37.5256 44.1159H40.2799V46.8702H37.5256V44.1159Z" fill="#08AB4B"/>
<path d="M40.2802 44.1159H43.035V46.8702H40.2802V44.1159Z" fill="#08AB4B"/>
<path d="M43.0348 44.1159H45.7891V46.8702H43.0348V44.1159Z" fill="#08AB4B"/>
<path d="M45.7891 44.1159H48.5433V46.8702H45.7891V44.1159Z" fill="#08AB4B"/>
<path d="M48.5432 44.1159H51.2975V46.8702H48.5432V44.1159Z" fill="#08AB4B"/>
<path d="M51.2977 44.1159H54.052V46.8702H51.2977V44.1159Z" fill="#08AB4B"/>
<path d="M54.0519 44.1159H56.8062V46.8702H54.0519V44.1159Z" fill="#08AB4B"/>
<path d="M56.8063 44.1159H59.5605V46.8702H56.8063V44.1159Z" fill="#08AB4B"/>
<path d="M59.561 44.1155H62.3157V46.8695H59.561V44.1155Z" fill="#08AB4B"/>
<path d="M62.3153 44.1158H65.0698V46.8697H62.3153V44.1158Z" fill="#0B8250"/>
<path d="M65.0695 44.1161H67.824V46.87H65.0695V44.1161Z" fill="#0B8250"/>
<path d="M67.8243 44.1153H70.5789V46.8698H67.8243V44.1153Z" fill="#0B8250"/>
<path d="M70.5782 44.1159H73.3329V46.8699H70.5782V44.1159Z" fill="#1B1B1D"/>
<path d="M32.0175 46.87H34.7718V49.6243H32.0175V46.87Z" fill="#1B1B1D"/>
<path d="M34.7717 46.87H37.526V49.6243H34.7717V46.87Z" fill="#5EEE99"/>
<path d="M37.526 46.87H40.2803V49.6243H37.526V46.87Z" fill="#08AB4B"/>
<path d="M40.2802 46.87H43.0344V49.6243H40.2802V46.87Z" fill="#08AB4B"/>
<path d="M43.0347 46.87H45.789V49.6243H43.0347V46.87Z" fill="#08AB4B"/>
<path d="M45.7889 46.87H48.5438V49.6243H45.7889V46.87Z" fill="#08AB4B"/>
<path d="M48.5438 46.87H51.2981V49.6243H48.5438V46.87Z" fill="#08AB4B"/>
<path d="M51.298 46.87H54.0523V49.6243H51.298V46.87Z" fill="#08AB4B"/>
<path d="M54.0525 46.87H56.8068V49.6243H54.0525V46.87Z" fill="#08AB4B"/>
<path d="M56.8063 46.87H59.5608V49.6245H56.8063V46.87Z" fill="#08AB4B"/>
<path d="M59.561 46.8695H62.3157V49.6242H59.561V46.8695Z" fill="#08AB4B"/>
<path d="M62.3153 46.8697H65.0698V49.6242H62.3153V46.8697Z" fill="#0B8250"/>
<path d="M65.0695 46.87H67.824V49.6245H65.0695V46.87Z" fill="#0B8250"/>
<path d="M67.8243 46.8698H70.5789V49.6243H67.8243V46.8698Z" fill="#0B8250"/>
<path d="M70.5782 46.8698H73.3329V49.6245H70.5782V46.8698Z" fill="#1B1B1D"/>
<path d="M29.2632 49.6242H32.0173V52.3783H29.2632V49.6242Z" fill="#1B1B1D"/>
<path d="M32.0176 49.6242H34.7723V52.3783H32.0176V49.6242Z" fill="#5EEE99"/>
<path d="M34.772 49.6242H37.5261V52.3783H34.772V49.6242Z" fill="#08AB4B"/>
<path d="M37.5262 49.6242H40.2804V52.3783H37.5262V49.6242Z" fill="#08AB4B"/>
<path d="M40.2804 49.6242H43.0351V52.3783H40.2804V49.6242Z" fill="#1B1B1D"/>
<path d="M43.0352 49.6242H45.7893V52.3783H43.0352V49.6242Z" fill="#1B1B1D"/>
<path d="M45.7893 49.6242H48.544V52.3783H45.7893V49.6242Z" fill="#1B1B1D"/>
<path d="M48.5439 49.6242H51.2981V52.3783H48.5439V49.6242Z" fill="#1B1B1D"/>
<path d="M51.2981 49.6242H54.0522V52.3783H51.2981V49.6242Z" fill="#1B1B1D"/>
<path d="M54.0522 49.6244H56.8068V52.3789H54.0522V49.6244Z" fill="#1B1B1D"/>
<path d="M56.8063 49.6246H59.5608V52.3791H56.8063V49.6246Z" fill="#1B1B1D"/>
<path d="M59.561 49.6242H62.3157V52.3782H59.561V49.6242Z" fill="#1B1B1D"/>
<path d="M62.3153 49.6242H65.0698V52.3788H62.3153V49.6242Z" fill="#1B1B1D"/>
<path d="M65.0695 49.6246H67.824V52.3791H65.0695V49.6246Z" fill="#0B8250"/>
<path d="M67.8243 49.6244H70.5789V52.3782H67.8243V49.6244Z" fill="#0B8250"/>
<path d="M70.5782 49.6246H73.3329V52.3785H70.5782V49.6246Z" fill="#0B8250"/>
<path d="M73.3324 49.6244H76.087V52.379H73.3324V49.6244Z" fill="#1B1B1D"/>
<path d="M29.2628 52.379H32.0173V55.1335H29.2628V52.379Z" fill="#1B1B1D"/>
<path d="M32.0172 52.379H34.7717V55.1335H32.0172V52.379Z" fill="#08AB4B"/>
<path d="M34.7717 52.379H37.5257V55.1335H34.7717V52.379Z" fill="#08AB4B"/>
<path d="M37.5256 52.379H40.2801V55.1335H37.5256V52.379Z" fill="#1B1B1D"/>
<path d="M40.2802 52.379H43.0346V55.1335H40.2802V52.379Z" fill="#FFFFF1"/>
<path d="M43.0347 52.379H45.7892V55.1335H43.0347V52.379Z" fill="#FFFFF1"/>
<path d="M45.7893 52.379H48.5433V55.1335H45.7893V52.379Z" fill="#FFFFF1"/>
<path d="M48.5432 52.379H51.2977V55.1335H48.5432V52.379Z" fill="#FFFFF1"/>
<path d="M51.2985 52.3786H54.0526V55.1327H51.2985V52.3786Z" fill="#FFFFF1"/>
<path d="M54.0522 52.3789H56.8068V55.1329H54.0522V52.3789Z" fill="#FFFFF1"/>
<path d="M56.8063 52.3791H59.5608V55.1331H56.8063V52.3791Z" fill="#FFFFF1"/>
<path d="M59.561 52.3782H62.3157V55.1329H59.561V52.3782Z" fill="#FFFFF1"/>
<path d="M62.3153 52.3787H65.0698V55.1333H62.3153V52.3787Z" fill="#FFFFF1"/>
<path d="M65.0695 52.3791H67.824V55.1331H65.0695V52.3791Z" fill="#1B1B1D"/>
<path d="M67.8243 52.3782H70.5789V55.1327H67.8243V52.3782Z" fill="#0B8250"/>
<path d="M70.5782 52.3785H73.3329V55.1331H70.5782V52.3785Z" fill="#0B8250"/>
<path d="M73.3324 52.379H76.087V55.1336H73.3324V52.379Z" fill="#1B1B1D"/>
<path d="M29.2632 55.1331H32.0175V57.8874H29.2632V55.1331Z" fill="#1B1B1D"/>
<path d="M32.0176 55.1331H34.7719V57.8874H32.0176V55.1331Z" fill="#08AB4B"/>
<path d="M34.772 55.1331H37.5263V57.8874H34.772V55.1331Z" fill="#1B1B1D"/>
<path d="M37.5262 55.1331H40.2806V57.8874H37.5262V55.1331Z" fill="#FFFFF1"/>
<path d="M40.2806 55.1331H43.035V57.8874H40.2806V55.1331Z" fill="#FFFFF1"/>
<path d="M43.035 55.1331H45.7894V57.8874H43.035V55.1331Z" fill="#FFFFF1"/>
<path d="M45.7893 55.1331H48.5436V57.8874H45.7893V55.1331Z" fill="#FFFFF1"/>
<path d="M48.5432 55.133H51.2978V57.8876H48.5432V55.133Z" fill="#FFFFF1"/>
<path d="M51.2985 55.1327H54.0526V57.8869H51.2985V55.1327Z" fill="#FFFFF1"/>
<path d="M54.0522 55.1329H56.8068V57.8875H54.0522V55.1329Z" fill="#FFFFF1"/>
<path d="M56.8063 55.1332H59.5608V57.8877H56.8063V55.1332Z" fill="#FFFFF1"/>
<path d="M59.561 55.1328H62.3157V57.8875H59.561V55.1328Z" fill="#FFFFF1"/>
<path d="M62.3153 55.1333H65.0698V57.8872H62.3153V55.1333Z" fill="#FFFFF1"/>
<path d="M65.0695 55.133H67.824V57.8876H65.0695V55.133Z" fill="#FFFFF1"/>
<path d="M67.8243 55.1328H70.5789V57.8873H67.8243V55.1328Z" fill="#1B1B1D"/>
<path d="M70.5782 55.1331H73.3329V57.8878H70.5782V55.1331Z" fill="#0B8250"/>
<path d="M73.3324 55.1336H76.087V57.8875H73.3324V55.1336Z" fill="#1B1B1D"/>
<path d="M29.2631 57.8872H32.0178V60.6414H29.2631V57.8872Z" fill="#1B1B1D"/>
<path d="M32.0178 57.8872H34.772V60.6414H32.0178V57.8872Z" fill="#08AB4B"/>
<path d="M34.772 57.8872H37.5262V60.6414H34.772V57.8872Z" fill="#1B1B1D"/>
<path d="M37.5261 57.8872H40.2808V60.6414H37.5261V57.8872Z" fill="#FFFFF1"/>
<path d="M40.2809 57.8872H43.0351V60.6414H40.2809V57.8872Z" fill="#FFFFF1"/>
<path d="M43.0352 57.8872H45.7894V60.6414H43.0352V57.8872Z" fill="#FFFFF1"/>
<path d="M45.7893 57.8872H48.5435V60.6415H45.7893V57.8872Z" fill="#1B1B1D"/>
<path d="M48.5432 57.8876H51.2978V60.6422H48.5432V57.8876Z" fill="#1B1B1D"/>
<path d="M51.2985 57.8869H54.0526V60.6416H51.2985V57.8869Z" fill="#1B1B1D"/>
<path d="M54.0522 57.8874H56.8068V60.642H54.0522V57.8874Z" fill="#1B1B1D"/>
<path d="M56.8063 57.8877H59.5608V60.6422H56.8063V57.8877Z" fill="#1B1B1D"/>
<path d="M59.561 57.8875H62.3157V60.6415H59.561V57.8875Z" fill="#FFFFF1"/>
<path d="M62.3153 57.8872H65.0698V60.6417H62.3153V57.8872Z" fill="#FFFFF1"/>
<path d="M65.0695 57.8876H67.824V60.6422H65.0695V57.8876Z" fill="#FFFFF1"/>
<path d="M67.8243 57.8872H70.5789V60.6418H67.8243V57.8872Z" fill="#1B1B1D"/>
<path d="M70.5782 57.8878H73.3329V60.6418H70.5782V57.8878Z" fill="#0B8250"/>
<path d="M73.3324 57.8875H76.087V60.642H73.3324V57.8875Z" fill="#1B1B1D"/>
<path d="M29.2628 60.642H32.0173V63.3965H29.2628V60.642Z" fill="#1B1B1D"/>
<path d="M32.0172 60.642H34.7717V63.3965H32.0172V60.642Z" fill="#08AB4B"/>
<path d="M34.7717 60.642H37.5257V63.3965H34.7717V60.642Z" fill="#1B1B1D"/>
<path d="M37.5259 60.642H40.2804V63.3965H37.5259V60.642Z" fill="#FFFFF1"/>
<path d="M40.2802 60.642H43.0347V63.3965H40.2802V60.642Z" fill="#FFFFF1"/>
<path d="M43.0347 60.6423H45.7888V63.3964H43.0347V60.6423Z" fill="#1B1B1D"/>
<path d="M45.7893 60.6415H48.5435V63.3962H45.7893V60.6415Z" fill="#1B1B1D"/>
<path d="M48.5432 60.6422H51.2978V63.3962H48.5432V60.6422Z" fill="#1B1B1D"/>
<path d="M51.2985 60.6416H54.0526V63.3958H51.2985V60.6416Z" fill="#1B1B1D"/>
<path d="M54.0522 60.642H56.8068V63.396H54.0522V60.642Z" fill="#1B1B1D"/>
<path d="M56.8063 60.6422H59.5608V63.3962H56.8063V60.6422Z" fill="#1B1B1D"/>
<path d="M59.561 60.6416H62.3157V63.3962H59.561V60.6416Z" fill="#1B1B1D"/>
<path d="M62.3153 60.6417H65.0698V63.3962H62.3153V60.6417Z" fill="#FFFFF1"/>
<path d="M65.0695 60.6422H67.824V63.3962H65.0695V60.6422Z" fill="#FFFFF1"/>
<path d="M67.8243 60.6418H70.5789V63.3963H67.8243V60.6418Z" fill="#1B1B1D"/>
<path d="M70.5782 60.6418H73.3329V63.3964H70.5782V60.6418Z" fill="#0B8250"/>
<path d="M73.3324 60.6421H76.087V63.3966H73.3324V60.6421Z" fill="#1B1B1D"/>
<path d="M29.2632 63.3962H32.0173V66.1503H29.2632V63.3962Z" fill="#1B1B1D"/>
<path d="M32.0175 63.3962H34.7716V66.1503H32.0175V63.3962Z" fill="#08AB4B"/>
<path d="M34.7715 63.3962H37.5261V66.1503H34.7715V63.3962Z" fill="#1B1B1D"/>
<path d="M37.5262 63.3962H40.2804V66.1503H37.5262V63.3962Z" fill="#FFFFF1"/>
<path d="M40.2806 63.3964H43.0349V66.1506H40.2806V63.3964Z" fill="#FFFFF1"/>
<path d="M43.0347 63.3965H45.7888V66.1511H43.0347V63.3965Z" fill="#1B1B1D"/>
<path d="M45.7893 63.3962H48.5435V66.1505H45.7893V63.3962Z" fill="#1B1B1D"/>
<path d="M48.5432 63.3962H51.2978V66.1508H48.5432V63.3962Z" fill="#FFFFF1"/>
<path d="M51.2985 63.3958H54.0526V66.1505H51.2985V63.3958Z" fill="#1B1B1D"/>
<path d="M54.0522 63.396H56.8068V66.1505H54.0522V63.396Z" fill="#FFFFF1"/>
<path d="M56.8063 63.3962H59.5608V66.1508H56.8063V63.3962Z" fill="#1B1B1D"/>
<path d="M59.561 63.3962H62.3157V66.1502H59.561V63.3962Z" fill="#1B1B1D"/>
<path d="M62.3153 63.3962H65.0698V66.1508H62.3153V63.3962Z" fill="#FFFFF1"/>
<path d="M65.0695 63.3961H67.824V66.1507H65.0695V63.3961Z" fill="#FFFFF1"/>
<path d="M67.8243 63.3963H70.5789V66.1502H67.8243V63.3963Z" fill="#1B1B1D"/>
<path d="M70.5782 63.3964H73.3329V66.1504H70.5782V63.3964Z" fill="#0B8250"/>
<path d="M73.3324 63.3966H76.087V66.1505H73.3324V63.3966Z" fill="#1B1B1D"/>
<path d="M29.2632 66.1502H32.0175V68.9046H29.2632V66.1502Z" fill="#1B1B1D"/>
<path d="M32.0175 66.1502H34.7718V68.9046H32.0175V66.1502Z" fill="#08AB4B"/>
<path d="M34.7719 66.1502H37.5262V68.9046H34.7719V66.1502Z" fill="#1B1B1D"/>
<path d="M37.5262 66.1506H40.2805V68.9048H37.5262V66.1506Z" fill="#FFFFF1"/>
<path d="M40.2806 66.1506H43.0349V68.9048H40.2806V66.1506Z" fill="#FFFFF1"/>
<path d="M43.0347 66.1511H45.7888V68.9052H43.0347V66.1511Z" fill="#1B1B1D"/>
<path d="M45.7893 66.1505H48.5435V68.9047H45.7893V66.1505Z" fill="#1B1B1D"/>
<path d="M48.5432 66.1508H51.2978V68.9048H48.5432V66.1508Z" fill="#1B1B1D"/>
<path d="M51.2985 66.1505H54.0526V68.9047H51.2985V66.1505Z" fill="#1B1B1D"/>
<path d="M54.0522 66.1506H56.8068V68.9052H54.0522V66.1506Z" fill="#1B1B1D"/>
<path d="M56.8063 66.1508H59.5608V68.9048H56.8063V66.1508Z" fill="#1B1B1D"/>
<path d="M59.561 66.1502H62.3157V68.9048H59.561V66.1502Z" fill="#1B1B1D"/>
<path d="M62.3153 66.1508H65.0698V68.9047H62.3153V66.1508Z" fill="#FFFFF1"/>
<path d="M65.0695 66.1507H67.824V68.9053H65.0695V66.1507Z" fill="#FFFFF1"/>
<path d="M67.8243 66.1502H70.5789V68.9047H67.8243V66.1502Z" fill="#1B1B1D"/>
<path d="M70.5782 66.1504H73.3329V68.905H70.5782V66.1504Z" fill="#0B8250"/>
<path d="M73.3324 66.1505H76.087V68.9051H73.3324V66.1505Z" fill="#1B1B1D"/>
<path d="M29.2631 68.9049H32.0174V71.6593H29.2631V68.9049Z" fill="#1B1B1D"/>
<path d="M32.0175 68.9049H34.7718V71.6593H32.0175V68.9049Z" fill="#08AB4B"/>
<path d="M34.7715 68.905H37.5259V71.6594H34.7715V68.905Z" fill="#1B1B1D"/>
<path d="M37.5262 68.9048H40.2805V71.659H37.5262V68.9048Z" fill="#FFFFF1"/>
<path d="M40.2806 68.9048H43.0349V71.6595H40.2806V68.9048Z" fill="#FFFFF1"/>
<path d="M43.0347 68.9052H45.7888V71.6594H43.0347V68.9052Z" fill="#FFFFF1"/>
<path d="M45.7893 68.9047H48.5435V71.659H45.7893V68.9047Z" fill="#1B1B1D"/>
<path d="M48.5432 68.9048H51.2978V71.6594H48.5432V68.9048Z" fill="#1B1B1D"/>
<path d="M51.2985 68.9046H54.0526V71.6588H51.2985V68.9046Z" fill="#1B1B1D"/>
<path d="M54.0522 68.9051H56.8068V71.6591H54.0522V68.9051Z" fill="#1B1B1D"/>
<path d="M56.8063 68.9048H59.5608V71.6594H56.8063V68.9048Z" fill="#1B1B1D"/>
<path d="M59.561 68.9049H62.3157V71.6589H59.561V68.9049Z" fill="#FFFFF1"/>
<path d="M62.3153 68.9046H65.0698V71.6591H62.3153V68.9046Z" fill="#FFFFF1"/>
<path d="M65.0695 68.9053H67.824V71.6592H65.0695V68.9053Z" fill="#FFFFF1"/>
<path d="M67.8243 68.9047H70.5789V71.6592H67.8243V68.9047Z" fill="#1B1B1D"/>
<path d="M70.5782 68.905H73.3329V71.659H70.5782V68.905Z" fill="#0B8250"/>
<path d="M73.3324 68.9051H76.087V71.6596H73.3324V68.9051Z" fill="#1B1B1D"/>
<path d="M29.2631 71.6593H32.0174V74.4136H29.2631V71.6593Z" fill="#1B1B1D"/>
<path d="M32.0175 71.6593H34.7718V74.4136H32.0175V71.6593Z" fill="#08AB4B"/>
<path d="M34.7715 71.6594H37.5259V74.4137H34.7715V71.6594Z" fill="#1B1B1D"/>
<path d="M37.5262 71.6591H40.2805V74.4133H37.5262V71.6591Z" fill="#FFFFF1"/>
<path d="M40.2806 71.6595H43.0349V74.4137H40.2806V71.6595Z" fill="#1B1B1D"/>
<path d="M43.0347 71.6594H45.7888V74.414H43.0347V71.6594Z" fill="#1B1B1D"/>
<path d="M45.7893 71.6589H48.5435V74.4137H45.7893V71.6589Z" fill="#FFFFF1"/>
<path d="M48.5432 71.6594H51.2978V74.414H48.5432V71.6594Z" fill="#FFFFF1"/>
<path d="M51.2985 71.6588H54.0526V74.4135H51.2985V71.6588Z" fill="#FFFFF1"/>
<path d="M54.0522 71.659H56.8068V74.4136H54.0522V71.659Z" fill="#FFFFF1"/>
<path d="M56.8063 71.6595H59.5608V74.414H56.8063V71.6595Z" fill="#FFFFF1"/>
<path d="M59.561 71.659H62.3157V74.4136H59.561V71.659Z" fill="#1B1B1D"/>
<path d="M62.3153 71.6591H65.0698V74.4136H62.3153V71.6591Z" fill="#1B1B1D"/>
<path d="M65.0695 71.6591H67.824V74.4137H65.0695V71.6591Z" fill="#A2D5DE"/>
<path d="M67.8243 71.6592H70.5789V74.4137H67.8243V71.6592Z" fill="#1B1B1D"/>
<path d="M70.5782 71.6591H73.3329V74.4137H70.5782V71.6591Z" fill="#0B8250"/>
<path d="M73.3324 71.6597H76.087V74.4139H73.3324V71.6597Z" fill="#1B1B1D"/>
<path d="M29.2631 74.4136H32.0174V77.168H29.2631V74.4136Z" fill="#1B1B1D"/>
<path d="M32.0175 74.4136H34.7718V77.168H32.0175V74.4136Z" fill="#08AB4B"/>
<path d="M34.7715 74.4137H37.5259V77.168H34.7715V74.4137Z" fill="#1B1B1D"/>
<path d="M37.5262 74.4132H40.2805V77.1679H37.5262V74.4132Z" fill="#FFFFF1"/>
<path d="M40.2806 74.4137H43.0349V77.168H40.2806V74.4137Z" fill="#FFFFF1"/>
<path d="M43.0347 74.4139H45.7888V77.1681H43.0347V74.4139Z" fill="#FFFFF1"/>
<path d="M45.7893 74.4136H48.5435V77.1678H45.7893V74.4136Z" fill="#1B1B1D"/>
<path d="M48.5432 74.414H51.2978V77.168H48.5432V74.414Z" fill="#1B1B1D"/>
<path d="M51.2985 74.4135H54.0526V77.1677H51.2985V74.4135Z" fill="#FFFFF1"/>
<path d="M54.0522 74.4136H56.8068V77.1681H54.0522V74.4136Z" fill="#1B1B1D"/>
<path d="M56.8063 74.414H59.5608V77.168H56.8063V74.414Z" fill="#1B1B1D"/>
<path d="M59.561 74.4136H62.3157V77.1677H59.561V74.4136Z" fill="#FFFFF1"/>
<path d="M62.3153 74.4136H65.0698V77.1681H62.3153V74.4136Z" fill="#FFFFF1"/>
<path d="M65.0695 74.4138H67.824V77.1682H65.0695V74.4138Z" fill="#A2D5DE"/>
<path d="M67.8243 74.4137H70.5789V77.1679H67.8243V74.4137Z" fill="#1B1B1D"/>
<path d="M70.5782 74.4135H73.3329V77.1679H70.5782V74.4135Z" fill="#0B8250"/>
<path d="M73.3324 74.4137H76.087V77.1681H73.3324V74.4137Z" fill="#1B1B1D"/>
<path d="M29.2631 77.168H32.0174V79.9223H29.2631V77.168Z" fill="#1B1B1D"/>
<path d="M32.0175 77.168H34.7718V79.9223H32.0175V77.168Z" fill="#08AB4B"/>
<path d="M34.7715 77.1681H37.5259V79.9225H34.7715V77.1681Z" fill="#1B1B1D"/>
<path d="M37.5262 77.168H40.2805V79.9223H37.5262V77.168Z" fill="#FFFFF1"/>
<path d="M40.2806 77.1679H43.0349V79.9221H40.2806V77.1679Z" fill="#FFFFF1"/>
<path d="M43.0347 77.1682H45.7888V79.9229H43.0347V77.1682Z" fill="#FFFFF1"/>
<path d="M45.7893 77.1679H48.5435V79.9221H45.7893V77.1679Z" fill="#FFFFF1"/>
<path d="M48.5432 77.1681H51.2978V79.9227H48.5432V77.1681Z" fill="#FFFFF1"/>
<path d="M51.2985 77.1676H54.0526V79.9223H51.2985V77.1676Z" fill="#1B1B1D"/>
<path d="M54.0522 77.1682H56.8068V79.9222H54.0522V77.1682Z" fill="#FFFFF1"/>
<path d="M56.8063 77.1679H59.5608V79.9224H56.8063V77.1679Z" fill="#FFFFF1"/>
<path d="M59.561 77.1675H62.3157V79.9221H59.561V77.1675Z" fill="#FFFFF1"/>
<path d="M62.3153 77.1681H65.0698V79.9223H62.3153V77.1681Z" fill="#A2D5DE"/>
<path d="M65.0695 77.1681H67.824V79.9224H65.0695V77.1681Z" fill="#A2D5DE"/>
<path d="M67.8243 77.1678H70.5789V79.9221H67.8243V77.1678Z" fill="#1B1B1D"/>
<path d="M70.5782 77.1679H73.3329V79.9223H70.5782V77.1679Z" fill="#0B8250"/>
<path d="M73.3324 77.1681H76.087V79.9225H73.3324V77.1681Z" fill="#1B1B1D"/>
<path d="M29.2631 79.9224H32.0174V82.6767H29.2631V79.9224Z" fill="#1B1B1D"/>
<path d="M32.0175 79.9224H34.7718V82.6767H32.0175V79.9224Z" fill="#08AB4B"/>
<path d="M34.7715 79.9224H37.5259V82.6768H34.7715V79.9224Z" fill="#1B1B1D"/>
<path d="M37.5262 79.9223H40.2805V82.6765H37.5262V79.9223Z" fill="#FFFFF1"/>
<path d="M40.2806 79.9223H43.0349V82.677H40.2806V79.9223Z" fill="#FFFFF1"/>
<path d="M43.0347 79.9229H45.7888V82.677H43.0347V79.9229Z" fill="#FFFFF1"/>
<path d="M45.7893 79.9222H48.5435V82.6764H45.7893V79.9222Z" fill="#1B1B1D"/>
<path d="M48.5432 79.9226H51.2978V82.6766H48.5432V79.9226Z" fill="#1B1B1D"/>
<path d="M51.2985 79.9223H54.0526V82.6765H51.2985V79.9223Z" fill="#FFFFF1"/>
<path d="M54.0522 79.9222H56.8068V82.6767H54.0522V79.9222Z" fill="#1B1B1D"/>
<path d="M56.8063 79.9225H59.5608V82.6768H56.8063V79.9225Z" fill="#1B1B1D"/>
<path d="M59.561 79.9223H62.3157V82.6766H59.561V79.9223Z" fill="#A2D5DE"/>
<path d="M62.3153 79.9224H65.0698V82.6768H62.3153V79.9224Z" fill="#A2D5DE"/>
<path d="M65.0695 79.9225H67.824V82.6769H65.0695V79.9225Z" fill="#A2D5DE"/>
<path d="M67.8243 79.9222H70.5789V82.6766H67.8243V79.9222Z" fill="#1B1B1D"/>
<path d="M70.5782 79.9224H73.3329V82.6767H70.5782V79.9224Z" fill="#0B8250"/>
<path d="M73.3324 79.9225H76.087V82.6769H73.3324V79.9225Z" fill="#1B1B1D"/>
<path d="M29.2631 82.6767H32.0174V85.4311H29.2631V82.6767Z" fill="#1B1B1D"/>
<path d="M32.0175 82.6767H34.7718V85.4311H32.0175V82.6767Z" fill="#0B8250"/>
<path d="M34.7715 82.6769H37.5259V85.4312H34.7715V82.6769Z" fill="#1B1B1D"/>
<path d="M37.5262 82.6765H40.2805V85.4312H37.5262V82.6765Z" fill="#A2D5DE"/>
<path d="M40.2806 82.6769H43.0349V85.4311H40.2806V82.6769Z" fill="#1B1B1D"/>
<path d="M43.0347 82.6769H45.7888V85.4316H43.0347V82.6769Z" fill="#1B1B1D"/>
<path d="M45.7893 82.6763H48.5435V85.4311H45.7893V82.6763Z" fill="#A2D5DE"/>
<path d="M48.5432 82.6767H51.2978V85.4313H48.5432V82.6767Z" fill="#A2D5DE"/>
<path d="M51.2985 82.6766H54.0526V85.4307H51.2985V82.6766Z" fill="#A2D5DE"/>
<path d="M54.0522 82.6767H56.8068V85.431H54.0522V82.6767Z" fill="#A2D5DE"/>
<path d="M56.8063 82.6768H59.5608V85.4311H56.8063V82.6768Z" fill="#A2D5DE"/>
<path d="M59.561 82.6765H62.3157V85.4309H59.561V82.6765Z" fill="#1B1B1D"/>
<path d="M62.3153 82.6767H65.0698V85.4311H62.3153V82.6767Z" fill="#1B1B1D"/>
<path d="M65.0695 82.6768H67.824V85.4311H65.0695V82.6768Z" fill="#A2D5DE"/>
<path d="M67.8243 82.6767H70.5789V85.4311H67.8243V82.6767Z" fill="#1B1B1D"/>
<path d="M70.5782 82.6769H73.3329V85.4312H70.5782V82.6769Z" fill="#0B8250"/>
<path d="M73.3324 82.6769H76.087V85.4313H73.3324V82.6769Z" fill="#1B1B1D"/>
<path d="M26.5087 88.1855H29.263V85.4311H26.5087V88.1855Z" fill="#66646D"/>
<path d="M29.2631 88.1855H32.0174V85.4311H29.2631V88.1855Z" fill="#1B1B1D"/>
<path d="M32.0175 85.4311H34.7718V88.1855H32.0175V85.4311Z" fill="#0B8250"/>
<path d="M34.7715 85.4312H37.5259V88.1856H34.7715V85.4312Z" fill="#0B8250"/>
<path d="M37.5262 85.4311H40.2805V88.1854H37.5262V85.4311Z" fill="#1B1B1D"/>
<path d="M40.2806 85.4311H43.0349V88.1854H40.2806V85.4311Z" fill="#A2D5DE"/>
<path d="M43.0347 85.4315H45.7888V88.1857H43.0347V85.4315Z" fill="#A2D5DE"/>
<path d="M45.7893 85.4312H48.5435V88.1855H45.7893V85.4312Z" fill="#A2D5DE"/>
<path d="M48.5432 85.4313H51.2978V88.1856H48.5432V85.4313Z" fill="#A2D5DE"/>
<path d="M51.2985 85.4306H54.0526V88.1852H51.2985V85.4306Z" fill="#A2D5DE"/>
<path d="M54.0522 85.431H56.8068V88.1853H54.0522V85.431Z" fill="#A2D5DE"/>
<path d="M56.8063 85.4312H59.5608V88.1856H56.8063V85.4312Z" fill="#A2D5DE"/>
<path d="M59.561 85.4308H62.3157V88.1852H59.561V85.4308Z" fill="#A2D5DE"/>
<path d="M62.3153 85.431H65.0698V88.1854H62.3153V85.431Z" fill="#A2D5DE"/>
<path d="M65.0695 85.4313H67.824V88.1856H65.0695V85.4313Z" fill="#1B1B1D"/>
<path d="M67.8243 85.4309H70.5789V88.1852H67.8243V85.4309Z" fill="#0B8250"/>
<path d="M70.5782 85.4311H73.3329V88.1854H70.5782V85.4311Z" fill="#0B8250"/>
<path d="M73.3324 85.4312H76.087V88.1856H73.3324V85.4312Z" fill="#1B1B1D"/>
<path d="M78.842 88.1855H76.0874V85.4311H78.842V88.1855Z" fill="#66646D"/>
<path d="M23.7544 90.9398H26.5088V88.1855H23.7544V90.9398Z" fill="#66646D"/>
<path d="M26.5087 90.9398H29.263V88.1855H26.5087V90.9398Z" fill="#66646D"/>
<path d="M29.2631 88.1855H32.0174V90.9398H29.2631V88.1855Z" fill="#1B1B1D"/>
<path d="M32.0175 88.1855H34.7718V90.9398H32.0175V88.1855Z" fill="#0B8250"/>
<path d="M34.7715 88.1857H37.5259V90.9401H34.7715V88.1857Z" fill="#0B8250"/>
<path d="M37.5262 88.1854H40.2805V90.9397H37.5262V88.1854Z" fill="#0B8250"/>
<path d="M40.2806 88.1853H43.0349V90.94H40.2806V88.1853Z" fill="#1B1B1D"/>
<path d="M43.0347 88.1857H45.7888V90.94H43.0347V88.1857Z" fill="#1B1B1D"/>
<path d="M45.7893 88.1854H48.5435V90.9398H45.7893V88.1854Z" fill="#1B1B1D"/>
<path d="M48.5432 88.1855H51.2978V90.9398H48.5432V88.1855Z" fill="#1B1B1D"/>
<path d="M51.2985 88.1852H54.0526V90.9396H51.2985V88.1852Z" fill="#1B1B1D"/>
<path d="M54.0522 88.1853H56.8068V90.9397H54.0522V88.1853Z" fill="#1B1B1D"/>
<path d="M56.8063 88.1855H59.5608V90.9398H56.8063V88.1855Z" fill="#1B1B1D"/>
<path d="M59.561 88.1853H62.3157V90.9397H59.561V88.1853Z" fill="#1B1B1D"/>
<path d="M62.3153 88.1854H65.0698V90.9398H62.3153V88.1854Z" fill="#1B1B1D"/>
<path d="M65.0695 88.1856H67.824V90.9399H65.0695V88.1856Z" fill="#0B8250"/>
<path d="M67.8243 88.1854H70.5789V90.9398H67.8243V88.1854Z" fill="#0B8250"/>
<path d="M70.5782 88.1855H73.3329V90.9398H70.5782V88.1855Z" fill="#0B8250"/>
<path d="M73.3324 88.1855H76.087V90.9399H73.3324V88.1855Z" fill="#1B1B1D"/>
<path d="M78.842 90.9397H76.0874V88.1854H78.842V90.9397Z" fill="#66646D"/>
<path d="M81.5958 90.9398H78.8417V88.1854H81.5958V90.9398Z" fill="#66646D"/>
<path d="M21 93.6942H23.7544V90.9398H21V93.6942Z" fill="#66646D"/>
<path d="M23.7544 93.6942H26.5088V90.9398H23.7544V93.6942Z" fill="#66646D"/>
<path d="M26.5087 93.6942H29.263V90.9398H26.5087V93.6942Z" fill="#66646D"/>
<path d="M29.2631 93.6942H32.0174V90.9398H29.2631V93.6942Z" fill="#66646D"/>
<path d="M32.0175 93.6942H34.7718V90.9398H32.0175V93.6942Z" fill="#1B1B1D"/>
<path d="M34.7715 90.9399H37.5259V93.6943H34.7715V90.9399Z" fill="#0B8250"/>
<path d="M37.5262 90.9396H40.2805V93.6938H37.5262V90.9396Z" fill="#0B8250"/>
<path d="M40.2806 90.9401H43.0349V93.6943H40.2806V90.9401Z" fill="#0B8250"/>
<path d="M43.0347 90.9401H45.7888V93.6945H43.0347V90.9401Z" fill="#0B8250"/>
<path d="M45.7893 90.9398H48.5435V93.6942H45.7893V90.9398Z" fill="#0B8250"/>
<path d="M48.5432 90.9398H51.2978V93.6942H48.5432V90.9398Z" fill="#0B8250"/>
<path d="M51.2985 90.9397H54.0526V93.6941H51.2985V90.9397Z" fill="#0B8250"/>
<path d="M54.0522 90.9399H56.8068V93.6942H54.0522V90.9399Z" fill="#0B8250"/>
<path d="M56.8063 90.9398H59.5608V93.6942H56.8063V90.9398Z" fill="#0B8250"/>
<path d="M59.561 90.9397H62.3157V93.6941H59.561V90.9397Z" fill="#0B8250"/>
<path d="M62.3153 90.9397H65.0698V93.6941H62.3153V90.9397Z" fill="#0B8250"/>
<path d="M65.0695 90.9399H67.824V93.6942H65.0695V90.9399Z" fill="#0B8250"/>
<path d="M67.8243 90.9397H70.5789V93.6941H67.8243V90.9397Z" fill="#0B8250"/>
<path d="M70.5782 90.9399H73.3329V93.6942H70.5782V90.9399Z" fill="#1B1B1D"/>
<path d="M76.087 93.6942H73.3324V90.9399H76.087V93.6942Z" fill="#66646D"/>
<path d="M78.842 93.6941H76.0874V90.9397H78.842V93.6941Z" fill="#66646D"/>
<path d="M81.5958 93.6943H78.8417V90.9399H81.5958V93.6943Z" fill="#66646D"/>
<path d="M84.3498 93.6943H81.5956V90.9399H84.3498V93.6943Z" fill="#66646D"/>
<path d="M23.7544 96.4485H26.5088V93.6942H23.7544V96.4485Z" fill="#66646D"/>
<path d="M26.5087 96.4485H29.263V93.6942H26.5087V96.4485Z" fill="#66646D"/>
<path d="M29.2631 96.4485H32.0174V93.6942H29.2631V96.4485Z" fill="#66646D"/>
<path d="M32.0175 96.4485H34.7718V93.6942H32.0175V96.4485Z" fill="#66646D"/>
<path d="M34.7715 93.6944H37.5259V96.4487H34.7715V93.6944Z" fill="#1B1B1D"/>
<path d="M37.5262 93.6938H40.2805V96.4484H37.5262V93.6938Z" fill="#1B1B1D"/>
<path d="M40.2806 93.6942H43.0349V96.4485H40.2806V93.6942Z" fill="#1B1B1D"/>
<path d="M43.0347 93.6944H45.7888V96.4487H43.0347V93.6944Z" fill="#1B1B1D"/>
<path d="M45.7893 93.6942H48.5435V96.4485H45.7893V93.6942Z" fill="#1B1B1D"/>
<path d="M48.5432 93.6942H51.2978V96.4486H48.5432V93.6942Z" fill="#1B1B1D"/>
<path d="M51.2985 93.6939H54.0526V96.4482H51.2985V93.6939Z" fill="#1B1B1D"/>
<path d="M54.0522 93.6942H56.8068V96.4485H54.0522V93.6942Z" fill="#1B1B1D"/>
<path d="M56.8063 93.6942H59.5608V96.4485H56.8063V93.6942Z" fill="#1B1B1D"/>
<path d="M59.561 93.6942H62.3157V96.4485H59.561V93.6942Z" fill="#1B1B1D"/>
<path d="M62.3153 93.6942H65.0698V96.4486H62.3153V93.6942Z" fill="#1B1B1D"/>
<path d="M65.0695 93.6944H67.824V96.4487H65.0695V93.6944Z" fill="#1B1B1D"/>
<path d="M67.8243 93.694H70.5789V96.4484H67.8243V93.694Z" fill="#1B1B1D"/>
<path d="M73.3329 96.4485H70.5782V93.6941H73.3329V96.4485Z" fill="#66646D"/>
<path d="M76.087 96.4485H73.3324V93.6942H76.087V96.4485Z" fill="#66646D"/>
<path d="M78.842 96.4484H76.0874V93.6941H78.842V96.4484Z" fill="#66646D"/>
<path d="M81.5958 96.4486H78.8417V93.6942H81.5958V96.4486Z" fill="#66646D"/>
<path d="M26.5087 99.2029H29.263V96.4486H26.5087V99.2029Z" fill="#66646D"/>
<path d="M29.2631 99.2029H32.0174V96.4486H29.2631V99.2029Z" fill="#66646D"/>
<path d="M32.0175 99.2029H34.7718V96.4486H32.0175V99.2029Z" fill="#66646D"/>
<path d="M37.5259 99.2031H34.7715V96.4487H37.5259V99.2031Z" fill="#66646D"/>
<path d="M40.2805 99.2028H37.5262V96.4484H40.2805V99.2028Z" fill="#66646D"/>
<path d="M43.0349 99.2029H40.2806V96.4486H43.0349V99.2029Z" fill="#66646D"/>
<path d="M45.7888 99.2031H43.0347V96.4488H45.7888V99.2031Z" fill="#66646D"/>
<path d="M48.5435 99.2029H45.7893V96.4485H48.5435V99.2029Z" fill="#66646D"/>
<path d="M51.2978 99.2029H48.5432V96.4485H51.2978V99.2029Z" fill="#66646D"/>
<path d="M54.0526 99.2027H51.2985V96.4483H54.0526V99.2027Z" fill="#66646D"/>
<path d="M56.8068 99.2029H54.0522V96.4486H56.8068V99.2029Z" fill="#66646D"/>
<path d="M59.5608 99.2029H56.8063V96.4486H59.5608V99.2029Z" fill="#66646D"/>
<path d="M62.3157 99.2029H59.561V96.4485H62.3157V99.2029Z" fill="#66646D"/>
<path d="M65.0698 99.2028H62.3153V96.4484H65.0698V99.2028Z" fill="#66646D"/>
<path d="M67.824 99.2029H65.0695V96.4486H67.824V99.2029Z" fill="#66646D"/>
<path d="M70.5789 99.2029H67.8243V96.4486H70.5789V99.2029Z" fill="#66646D"/>
<path d="M73.3329 99.2029H70.5782V96.4486H73.3329V99.2029Z" fill="#66646D"/>
<path d="M76.087 99.2031H73.3324V96.4487H76.087V99.2031Z" fill="#66646D"/>
<path d="M78.842 99.2029H76.0874V96.4486H78.842V99.2029Z" fill="#66646D"/>
<path d="M40.2805 101.957H37.5262V99.2028H40.2805V101.957Z" fill="#66646D"/>
<path d="M43.0349 101.957H40.2806V99.2031H43.0349V101.957Z" fill="#66646D"/>
<path d="M45.7888 101.958H43.0347V99.2031H45.7888V101.958Z" fill="#66646D"/>
<path d="M48.5435 101.957H45.7893V99.2028H48.5435V101.957Z" fill="#66646D"/>
<path d="M51.2978 101.957H48.5432V99.203H51.2978V101.957Z" fill="#66646D"/>
<path d="M54.0526 101.957H51.2985V99.2028H54.0526V101.957Z" fill="#66646D"/>
<path d="M56.8068 101.957H54.0522V99.2029H56.8068V101.957Z" fill="#66646D"/>
<path d="M59.5608 101.957H56.8063V99.2029H59.5608V101.957Z" fill="#66646D"/>
<path d="M62.3157 101.957H59.561V99.2029H62.3157V101.957Z" fill="#66646D"/>
<path d="M65.0698 101.957H62.3153V99.2028H65.0698V101.957Z" fill="#66646D"/>
<path d="M67.824 101.957H65.0695V99.2029H67.824V101.957Z" fill="#66646D"/>
</svg>
